<?xml version="1.0" encoding="UTF-8" standalone="no"?>
<!-- Created with Inkscape (http://www.inkscape.org/) -->

<svg
   xmlns:dc="http://purl.org/dc/elements/1.1/"
   xmlns:cc="http://creativecommons.org/ns#"
   xmlns:rdf="http://www.w3.org/1999/02/22-rdf-syntax-ns#"
   xmlns:svg="http://www.w3.org/2000/svg"
   xmlns="http://www.w3.org/2000/svg"
   xmlns:sodipodi="http://sodipodi.sourceforge.net/DTD/sodipodi-0.dtd"
   xmlns:inkscape="http://www.inkscape.org/namespaces/inkscape"
   width="13"
   height="10"
   id="svg2"
   version="1.1"
   inkscape:version="0.48.4 r9939"
   sodipodi:docname="NoteValueGlyphs.svg">
  <defs
     id="defs4">
    <inkscape:path-effect
       effect="spiro"
       id="path-effect4730"
       is_visible="true" />
    <inkscape:path-effect
       effect="spiro"
       id="path-effect4459"
       is_visible="true" />
    <inkscape:path-effect
       effect="spiro"
       id="path-effect4323"
       is_visible="true" />
    <inkscape:path-effect
       effect="spiro"
       id="path-effect4640"
       is_visible="true" />
    <inkscape:path-effect
       effect="spiro"
       id="path-effect4636"
       is_visible="true" />
    <inkscape:path-effect
       effect="spiro"
       id="path-effect4632"
       is_visible="true" />
    <inkscape:path-effect
       effect="spiro"
       id="path-effect4624"
       is_visible="true" />
    <inkscape:path-effect
       effect="spiro"
       id="path-effect3928"
       is_visible="true" />
    <inkscape:path-effect
       effect="spiro"
       id="path-effect3806"
       is_visible="true" />
    <inkscape:path-effect
       effect="spiro"
       id="path-effect3802"
       is_visible="true" />
    <inkscape:path-effect
       effect="spiro"
       id="path-effect3793"
       is_visible="true" />
    <inkscape:path-effect
       effect="spiro"
       id="path-effect3793-1"
       is_visible="true" />
    <inkscape:path-effect
       effect="spiro"
       id="path-effect3802-7"
       is_visible="true" />
    <inkscape:path-effect
       effect="spiro"
       id="path-effect3806-4"
       is_visible="true" />
    <inkscape:path-effect
       effect="spiro"
       id="path-effect3793-5"
       is_visible="true" />
    <inkscape:path-effect
       effect="spiro"
       id="path-effect3802-5"
       is_visible="true" />
    <inkscape:path-effect
       effect="spiro"
       id="path-effect3806-1"
       is_visible="true" />
    <inkscape:path-effect
       effect="spiro"
       id="path-effect3793-5-1"
       is_visible="true" />
    <inkscape:path-effect
       effect="spiro"
       id="path-effect3802-5-4"
       is_visible="true" />
    <inkscape:path-effect
       effect="spiro"
       id="path-effect3806-1-2"
       is_visible="true" />
    <inkscape:path-effect
       effect="spiro"
       id="path-effect3928-3"
       is_visible="true" />
    <inkscape:path-effect
       effect="spiro"
       id="path-effect3793-18"
       is_visible="true" />
    <inkscape:path-effect
       effect="spiro"
       id="path-effect3802-9"
       is_visible="true" />
    <inkscape:path-effect
       effect="spiro"
       id="path-effect3806-2"
       is_visible="true" />
    <inkscape:path-effect
       effect="spiro"
       id="path-effect3793-5-4"
       is_visible="true" />
    <inkscape:path-effect
       effect="spiro"
       id="path-effect3802-5-1"
       is_visible="true" />
    <inkscape:path-effect
       effect="spiro"
       id="path-effect3806-1-1"
       is_visible="true" />
    <inkscape:path-effect
       effect="spiro"
       id="path-effect3928-38"
       is_visible="true" />
    <inkscape:path-effect
       effect="spiro"
       id="path-effect3793-18-9"
       is_visible="true" />
    <inkscape:path-effect
       effect="spiro"
       id="path-effect3802-9-8"
       is_visible="true" />
    <inkscape:path-effect
       effect="spiro"
       id="path-effect3806-2-6"
       is_visible="true" />
    <inkscape:path-effect
       effect="spiro"
       id="path-effect3793-18-4"
       is_visible="true" />
    <inkscape:path-effect
       effect="spiro"
       id="path-effect3802-9-86"
       is_visible="true" />
    <inkscape:path-effect
       effect="spiro"
       id="path-effect3806-2-5"
       is_visible="true" />
    <inkscape:path-effect
       effect="spiro"
       id="path-effect3793-5-4-9"
       is_visible="true" />
    <inkscape:path-effect
       effect="spiro"
       id="path-effect3802-5-1-3"
       is_visible="true" />
    <inkscape:path-effect
       effect="spiro"
       id="path-effect3806-1-1-4"
       is_visible="true" />
    <inkscape:path-effect
       effect="spiro"
       id="path-effect3928-38-4"
       is_visible="true" />
    <inkscape:path-effect
       effect="spiro"
       id="path-effect3793-18-4-9"
       is_visible="true" />
    <inkscape:path-effect
       effect="spiro"
       id="path-effect3802-9-86-6"
       is_visible="true" />
    <inkscape:path-effect
       effect="spiro"
       id="path-effect3793-18-4-1"
       is_visible="true" />
    <inkscape:path-effect
       effect="spiro"
       id="path-effect3802-9-86-3"
       is_visible="true" />
    <inkscape:path-effect
       effect="spiro"
       id="path-effect3793-18-4-6"
       is_visible="true" />
    <inkscape:path-effect
       effect="spiro"
       id="path-effect3802-9-86-36"
       is_visible="true" />
    <inkscape:path-effect
       effect="spiro"
       id="path-effect3793-5-4-9-7"
       is_visible="true" />
    <inkscape:path-effect
       effect="spiro"
       id="path-effect3802-5-1-3-2"
       is_visible="true" />
    <inkscape:path-effect
       effect="spiro"
       id="path-effect3806-1-1-4-6"
       is_visible="true" />
    <inkscape:path-effect
       effect="spiro"
       id="path-effect3793-18-4-1-4"
       is_visible="true" />
    <inkscape:path-effect
       effect="spiro"
       id="path-effect3793-18-4-1-46"
       is_visible="true" />
    <inkscape:path-effect
       effect="spiro"
       id="path-effect3793-5-4-9-7-7"
       is_visible="true" />
    <inkscape:path-effect
       effect="spiro"
       id="path-effect3802-5-1-3-2-7"
       is_visible="true" />
    <inkscape:path-effect
       effect="spiro"
       id="path-effect3793-18-4-1-46-8"
       is_visible="true" />
    <inkscape:path-effect
       effect="spiro"
       id="path-effect3793-18-4-1-46-0"
       is_visible="true" />
    <inkscape:path-effect
       effect="spiro"
       id="path-effect3793-5-4-9-7-7-5"
       is_visible="true" />
    <inkscape:path-effect
       effect="spiro"
       id="path-effect4640-9"
       is_visible="true" />
  </defs>
  <sodipodi:namedview
     id="base"
     pagecolor="#ffffff"
     bordercolor="#666666"
     borderopacity="1.0"
     inkscape:pageopacity="0.0"
     inkscape:pageshadow="2"
     inkscape:zoom="7.3339329"
     inkscape:cx="11.06835"
     inkscape:cy="-12.465211"
     inkscape:document-units="px"
     inkscape:current-layer="layer2"
     showgrid="true"
     showguides="true"
     inkscape:guide-bbox="true"
     inkscape:window-width="909"
     inkscape:window-height="865"
     inkscape:window-x="150"
     inkscape:window-y="150"
     inkscape:window-maximized="0"
     fit-margin-top="0"
     fit-margin-left="0"
     fit-margin-right="0"
     fit-margin-bottom="0">
    <inkscape:grid
       type="xygrid"
       id="grid3015"
       empspacing="13"
       visible="true"
       enabled="true"
       snapvisiblegridlinesonly="true"
       originx="0px"
       originy="0px" />
    <sodipodi:guide
       orientation="0,1"
       position="0,2"
       id="characterBaseline" />
  </sodipodi:namedview>
  <metadata
     id="metadata7">
    <rdf:RDF>
      <cc:Work
         rdf:about="">
        <dc:format>image/svg+xml</dc:format>
        <dc:type
           rdf:resource="http://purl.org/dc/dcmitype/StillImage" />
        <dc:title />
      </cc:Work>
    </rdf:RDF>
  </metadata>
  <g
     inkscape:groupmode="layer"
     id="layer22"
     inkscape:label="double"
     sodipodi:insensitive="true"
     style="display:none">
    <path
       inkscape:connector-curvature="0"
       id="double"
       d="M 0,8 M 0,0 M 2.625,2.5128 C 2.625,4.1795 2.625,5.8461 2.625,7.5128 2.875,7.5128 3.125,7.5128 3.375,7.5128 3.375,7.1378 3.375,6.7628 3.375,6.3878 4.125,6.3878 4.875,6.3878 5.625,6.3878 5.625,6.7628 5.625,7.1378 5.625,7.5128 5.875,7.5128 6.125,7.5128 6.375,7.5128 6.375,5.8461 6.375,4.1795 6.375,2.5128 6.125,2.5128 5.875,2.5128 5.625,2.5128 5.625,2.8878 5.625,3.2628 5.625,3.6378 4.875,3.6378 4.125,3.6378 3.375,3.6378 3.375,3.2628 3.375,2.8878 3.375,2.5128 3.125,2.5128 2.875,2.5128 2.625,2.5128 z M 3.375,4.3878 C 4.125,4.3878 4.875,4.3878 5.625,4.3878 5.625,4.8045 5.625,5.2211 5.625,5.6378 4.875,5.6378 4.125,5.6378 3.375,5.6378 3.375,5.2211 3.375,4.8045 3.375,4.3878 z M 13,10"
       style="font-size:medium;font-style:normal;font-variant:normal;font-weight:normal;font-stretch:normal;text-indent:0;text-align:start;text-decoration:none;line-height:normal;letter-spacing:normal;word-spacing:normal;text-transform:none;direction:ltr;block-progression:tb;writing-mode:lr-tb;text-anchor:start;baseline-shift:baseline;color:#000000;fill:#000000;fill-opacity:1;stroke:none;stroke-width:0.75;marker:none;visibility:visible;display:inline;overflow:visible;enable-background:accumulate;font-family:Sans;-inkscape-font-specification:Sans" />
  </g>
  <g
     inkscape:groupmode="layer"
     id="layer21"
     inkscape:label="whole_dotted"
     sodipodi:insensitive="true"
     style="display:none">
    <path
       inkscape:connector-curvature="0"
       id="whole_dotted"
       d="M 0,8 M 0,0 M 5,4.6378 C 4.33746,4.6335 3.58319,4.8668 3.25516,5.4898 3.00007,5.9439 3.13677,6.5468 3.53596,6.8719 4.37185,7.583 5.75426,7.5624 6.54598,6.7928 6.93121,6.4252 6.98142,5.7852 6.66589,5.3581 6.30065,4.827 5.61358,4.6379 5,4.6378 z M 5,5.3878 C 5.39786,5.3925 5.87236,5.4944 6.08827,5.8646 6.23586,6.1763 5.8677,6.3967 5.63005,6.5043 5.07933,6.7523 4.35397,6.6545 3.9413,6.1973 3.73703,5.9128 4.07005,5.6134 4.32295,5.5166 4.53571,5.4249 4.76932,5.3883 5,5.3878 z M 8.625,6.6378 C 8.625,7.2211 8.625,7.8045 8.625,8.3878 9.20833,8.3878 9.79167,8.3878 10.375,8.3878 10.375,7.8045 10.375,7.2211 10.375,6.6378 9.79167,6.6378 9.20833,6.6378 8.625,6.6378 z M 13,10"
       style="font-size:medium;font-style:normal;font-variant:normal;font-weight:normal;font-stretch:normal;text-indent:0;text-align:start;text-decoration:none;line-height:normal;letter-spacing:normal;word-spacing:normal;text-transform:none;direction:ltr;block-progression:tb;writing-mode:lr-tb;text-anchor:start;baseline-shift:baseline;color:#000000;fill:#000000;fill-opacity:1;stroke:none;stroke-width:0.75;marker:none;visibility:visible;display:inline;overflow:visible;enable-background:accumulate;font-family:Sans;-inkscape-font-specification:Sans" />
  </g>
  <g
     inkscape:groupmode="layer"
     id="layer20"
     inkscape:label="double_triplet"
     sodipodi:insensitive="true"
     style="display:none">
    <path
       inkscape:connector-curvature="0"
       id="double_triplet"
       d="M 0,8 M 0,0 M 2.625,2.5128 2.625,7.5128 3.375,7.5128 3.375,6.3878 5.625,6.3878 5.625,7.5128 6.375,7.5128 6.375,2.5128 5.625,2.5128 5.625,3.6378 3.375,3.6378 3.375,2.5128 2.625,2.5128 z M 9.875,3.5128 C 9.59929,3.5128 9.34716,3.5654 9.125,3.6691 8.90283,3.7727 8.74918,3.8942 8.625,4.0753 8.50081,4.2564 8.40527,4.491 8.34375,4.7941 L 9.21875,4.9503 C 9.24382,4.7316 9.32129,4.5642 9.4375,4.4503 9.55371,4.3364 9.67968,4.2941 9.84375,4.2941 10.01009,4.2941 10.14974,4.3501 10.25,4.4503 10.35026,4.5506 10.40625,4.6879 10.40625,4.8566 10.40625,5.0548 10.32422,5.2057 10.1875,5.3253 10.05078,5.4449 9.85351,5.4884 9.59375,5.4816 L 9.5,6.2628 C 9.6709,6.215 9.81445,6.2003 9.9375,6.2003 10.12435,6.2003 10.27636,6.2778 10.40625,6.4191 10.53613,6.5603 10.59375,6.74 10.59375,6.9816 10.59375,7.2368 10.54183,7.4562 10.40625,7.6066 10.27067,7.7569 10.10449,7.8253 9.90625,7.8253 9.72168,7.8253 9.56738,7.7631 9.4375,7.6378 9.30761,7.5125 9.21712,7.3123 9.1875,7.0753 L 8.25,7.2003 C 8.29785,7.6219 8.48275,7.9707 8.78125,8.2316 9.07976,8.4925 9.4528,8.6066 9.90625,8.6066 10.38477,8.6066 10.80371,8.4477 11.125,8.1378 11.44629,7.8279 11.59374,7.4526 11.59375,7.0128 11.59374,6.7097 11.51578,6.477 11.34375,6.2628 11.17171,6.0486 10.94335,5.8868 10.65625,5.8253 11.13704,5.5633 11.375,5.2338 11.375,4.7941 11.375,4.4842 11.2347,4.1964 11,3.9503 10.71516,3.6495 10.34668,3.5128 9.875,3.5128 z M 3.375,4.3878 5.625,4.3878 5.625,5.6378 3.375,5.6378 3.375,4.3878 z M 13,10"
       style="font-size:7px;font-style:normal;font-weight:bold;line-height:125%;letter-spacing:0px;word-spacing:0px;fill:#000000;fill-opacity:1;stroke:none;font-family:Sans;-inkscape-font-specification:Sans Bold" />
  </g>
  <g
     inkscape:groupmode="layer"
     id="layer19"
     inkscape:label="whole"
     style="display:none"
     sodipodi:insensitive="true">
    <path
       inkscape:connector-curvature="0"
       id="whole"
       d="M 0,8 M 0,0 M 4.99523,5.6336 C 4.43876,5.6348 3.84051,5.7837 3.44925,6.2033 3.14744,6.5186 3.02514,7.0109 3.20229,7.4185 3.40217,7.8837 3.87593,8.16 4.34409,8.2941 5.06073,8.4955 5.88726,8.3566 6.45927,7.8676 6.76358,7.6087 6.93641,7.1898 6.84894,6.7931 6.75447,6.3128 6.35231,5.9483 5.90455,5.7885 5.61486,5.6795 5.30388,5.6338 4.99523,5.6336 z M 4.99523,6.3836 C 5.36952,6.3872 5.78919,6.4769 6.03568,6.7823 6.14962,6.9128 6.14748,7.1223 6.01507,7.2396 5.48062,7.7565 4.54658,7.7624 3.99842,7.2631 3.86234,7.1546 3.82764,6.9483 3.93653,6.8084 4.17205,6.4817 4.61586,6.3875 4.99523,6.3836 z M 13,10"
       style="font-size:medium;font-style:normal;font-variant:normal;font-weight:normal;font-stretch:normal;text-indent:0;text-align:start;text-decoration:none;line-height:normal;letter-spacing:normal;word-spacing:normal;text-transform:none;direction:ltr;block-progression:tb;writing-mode:lr-tb;text-anchor:start;baseline-shift:baseline;color:#000000;fill:#000000;fill-opacity:1;stroke:none;stroke-width:0.75;marker:none;visibility:visible;display:inline;overflow:visible;enable-background:accumulate;font-family:Sans;-inkscape-font-specification:Sans" />
  </g>
  <g
     inkscape:groupmode="layer"
     id="layer18"
     inkscape:label="half_dotted"
     style="display:none"
     sodipodi:insensitive="true">
    <path
       inkscape:connector-curvature="0"
       id="half_dotted"
       d="M 0,8 M 0,0 M 4.65625,1.6378 C 4.65625,2.9295 4.65625,4.2211 4.65625,5.5128 3.92029,5.2398 3.1089,5.5928 2.53718,6.0674 2.01562,6.4834 1.66926,7.263 2.03125,7.8878 2.39007,8.5158 3.23715,8.5446 3.85412,8.3496 4.63228,8.1157 5.32029,7.4337 5.40625,6.6066 5.40625,4.9503 5.40625,3.2941 5.40625,1.6378 5.15625,1.6378 4.90625,1.6378 4.65625,1.6378 z M 4.15625,6.1691 C 4.54254,6.1239 4.81929,6.5494 4.5625,6.8566 4.25672,7.4753 3.47532,7.8493 2.80913,7.6411 2.43624,7.4528 2.69852,6.9528 2.91984,6.7386 3.25256,6.4319 3.69017,6.1645 4.15625,6.1691 z M 8.65625,6.6378 C 8.65625,7.2211 8.65625,7.8045 8.65625,8.3878 9.23958,8.3878 9.82292,8.3878 10.40625,8.3878 10.40625,7.8045 10.40625,7.2211 10.40625,6.6378 9.82292,6.6378 9.23958,6.6378 8.65625,6.6378 z M 13,10"
       style="font-size:medium;font-style:normal;font-variant:normal;font-weight:normal;font-stretch:normal;text-indent:0;text-align:start;text-decoration:none;line-height:normal;letter-spacing:normal;word-spacing:normal;text-transform:none;direction:ltr;block-progression:tb;writing-mode:lr-tb;text-anchor:start;baseline-shift:baseline;color:#000000;fill:#000000;fill-opacity:1;stroke:none;stroke-width:0.75;marker:none;visibility:visible;display:inline;overflow:visible;enable-background:accumulate;font-family:Sans;-inkscape-font-specification:Sans" />
  </g>
  <g
     inkscape:groupmode="layer"
     id="layer17"
     inkscape:label="whole_triplet"
     sodipodi:insensitive="true"
     style="display:none">
    <path
       inkscape:connector-curvature="0"
       id="whole_triplet"
       d="M 0,8 M 0,0 M 9.875,3.5128 C 9.30571,3.4998 8.68353,3.781 8.4789,4.345 8.42291,4.527 8.21567,4.8598 8.53832,4.8288 8.76513,4.8693 8.99194,4.9098 9.21875,4.9503 9.22827,4.5728 9.56711,4.2048 9.9633,4.3044 10.44141,4.3653 10.55556,5.0554 10.1875,5.3253 10.04561,5.5804 9.54948,5.3202 9.57491,5.6386 9.54994,5.8466 9.52497,6.0547 9.5,6.2628 9.86669,6.1315 10.35936,6.1889 10.52265,6.5954 10.6697,6.9949 10.61605,7.5764 10.17975,7.7723 9.7776,7.9584 9.29775,7.6687 9.22079,7.2455 9.25168,7.0025 9.04381,7.1036 8.89362,7.1145 8.67908,7.1431 8.46454,7.1717 8.25,7.2003 8.30737,7.9412 8.95359,8.5738 9.69956,8.5981 10.41864,8.6872 11.20087,8.3142 11.47986,7.624 11.69077,7.1101 11.62856,6.4386 11.16589,6.0788 11.06676,5.9333 10.69148,5.8693 10.70061,5.8005 11.12965,5.5852 11.4612,5.1165 11.36051,4.6222 11.23211,3.9383 10.55414,3.4784 9.875,3.5128 z M 5,4.6378 C 4.31264,4.6324 3.52572,4.8873 3.22198,5.559 2.96752,6.0834 3.23439,6.7265 3.71875,7.0128 4.59427,7.5925 5.90665,7.5073 6.62059,6.7083 7.04727,6.2289 6.90154,5.4462 6.40573,5.0743 6.01462,4.7555 5.49498,4.6391 5,4.6378 z M 5,5.3878 C 5.4118,5.3928 5.92167,5.5034 6.10893,5.9155 6.18746,6.2752 5.75005,6.4593 5.47754,6.5624 4.94255,6.7348 4.26496,6.6109 3.91173,6.1512 3.76429,5.8032 4.18313,5.5439 4.46977,5.4627 4.64127,5.4105 4.821,5.3879 5,5.3878 z M 13,10"
       style="font-size:7px;font-style:normal;font-weight:bold;line-height:125%;letter-spacing:0px;word-spacing:0px;fill:#000000;fill-opacity:1;stroke:none;font-family:Sans;-inkscape-font-specification:Sans Bold" />
  </g>
  <g
     inkscape:groupmode="layer"
     id="layer16"
     inkscape:label="half"
     sodipodi:insensitive="true"
     style="display:none">
    <path
       inkscape:connector-curvature="0"
       id="half"
       d="M 0,8 M 0,0 M 4.625,1.6378 C 4.625,2.9295 4.625,4.2211 4.625,5.5128 3.99004,5.2695 3.28548,5.5222 2.7481,5.8818 2.22485,6.2292 1.7718,6.8251 1.86221,7.485 1.91788,7.9846 2.35501,8.3803 2.84711,8.4337 3.82799,8.5743 4.86168,8.0053 5.25455,7.0925 5.43337,6.7215 5.35933,6.3046 5.375,5.9081 5.375,4.4847 5.375,3.0612 5.375,1.6378 5.125,1.6378 4.875,1.6378 4.625,1.6378 z M 4.15625,6.1691 C 4.40744,6.1617 4.71064,6.3661 4.61058,6.647 4.40302,7.3735 3.56347,7.8375 2.83598,7.6626 2.50479,7.5911 2.56672,7.1881 2.70862,6.9729 2.97353,6.5558 3.44257,6.2934 3.91569,6.1853 3.99492,6.1711 4.07578,6.1639 4.15625,6.1691 z M 13,10"
       style="font-size:medium;font-style:normal;font-variant:normal;font-weight:normal;font-stretch:normal;text-indent:0;text-align:start;text-decoration:none;line-height:normal;letter-spacing:normal;word-spacing:normal;text-transform:none;direction:ltr;block-progression:tb;writing-mode:lr-tb;text-anchor:start;baseline-shift:baseline;color:#000000;fill:#000000;fill-opacity:1;stroke:none;stroke-width:0.75;marker:none;visibility:visible;display:inline;overflow:visible;enable-background:accumulate;font-family:Sans;-inkscape-font-specification:Sans" />
  </g>
  <g
     inkscape:groupmode="layer"
     id="layer15"
     inkscape:label="4th_dotted"
     sodipodi:insensitive="true"
     style="display:none">
    <path
       style="font-size:medium;font-style:normal;font-variant:normal;font-weight:normal;font-stretch:normal;text-indent:0;text-align:start;text-decoration:none;line-height:normal;letter-spacing:normal;word-spacing:normal;text-transform:none;direction:ltr;block-progression:tb;writing-mode:lr-tb;text-anchor:start;baseline-shift:baseline;color:#000000;fill:#000000;fill-opacity:1;fill-rule:nonzero;stroke:none;stroke-width:0.75;marker:none;visibility:visible;display:inline;overflow:visible;enable-background:accumulate;font-family:Sans;-inkscape-font-specification:Sans"
       d="M 0,8 M 0,0 M 4.65625,1.6378 C 4.65625,2.9295 4.65625,4.2211 4.65625,5.5128 3.92029,5.2398 3.1089,5.5928 2.53718,6.0674 2.01562,6.4834 1.66926,7.263 2.03125,7.8878 2.39007,8.5158 3.23715,8.5446 3.85412,8.3496 4.63228,8.1157 5.32029,7.4337 5.40625,6.6066 5.40625,4.9503 5.40625,3.2941 5.40625,1.6378 5.15625,1.6378 4.90625,1.6378 4.65625,1.6378 z M 8.65625,6.6378 C 8.65625,7.2211 8.65625,7.8045 8.65625,8.3878 9.23958,8.3878 9.82292,8.3878 10.40625,8.3878 10.40625,7.8045 10.40625,7.2211 10.40625,6.6378 9.82292,6.6378 9.23958,6.6378 8.65625,6.6378 z M 13,10"
       id="4th_dotted"
       inkscape:connector-curvature="0" />
  </g>
  <g
     inkscape:groupmode="layer"
     id="layer14"
     inkscape:label="half_triplet"
     style="display:none"
     sodipodi:insensitive="true">
    <path
       inkscape:connector-curvature="0"
       id="half_triplet"
       d="M 0,8 M 0,0 M 4.625,1.6378 C 4.625,2.9295 4.625,4.2211 4.625,5.5128 3.86147,5.2312 3.01689,5.617 2.44222,6.1242 1.91147,6.5677 1.61766,7.428 2.08747,8.0173 2.56567,8.5967 3.4447,8.5215 4.07187,8.2584 4.81354,7.9376 5.4447,7.1769 5.375,6.3357 5.375,4.7698 5.375,3.2038 5.375,1.6378 5.125,1.6378 4.875,1.6378 4.625,1.6378 z M 9.875,3.5128 C 9.25195,3.4928 8.58985,3.8453 8.42703,4.4812 8.27182,4.7403 8.38446,4.8526 8.65035,4.8488 8.83982,4.8826 9.02928,4.9165 9.21875,4.9503 9.22348,4.548 9.61114,4.1773 10.01895,4.3171 10.51824,4.4387 10.52481,5.2074 10.07358,5.4011 9.79951,5.4885 9.49933,5.4186 9.55664,5.7908 9.53776,5.9481 9.51888,6.1055 9.5,6.2628 9.86669,6.1315 10.35936,6.1889 10.52265,6.5954 10.6968,7.0292 10.58232,7.7099 10.04894,7.8123 9.57413,7.9426 9.21987,7.4564 9.16375,7.0785 8.85917,7.1191 8.55458,7.1597 8.25,7.2003 8.30754,7.9567 8.97928,8.5937 9.73996,8.6011 10.57525,8.704 11.48027,8.1197 11.57802,7.2534 11.70646,6.6458 11.31486,5.9897 10.70939,5.838 10.86215,5.6753 11.47374,5.2671 11.375,4.7941 11.36099,4.0382 10.60285,3.4636 9.875,3.5128 z M 4.15625,6.1691 C 4.69456,6.1334 4.72676,6.7672 4.40722,7.0612 4.03959,7.5596 3.32,7.8543 2.72803,7.6153 2.39558,7.3279 2.74331,6.8405 3.01065,6.6268 3.33521,6.3732 3.73364,6.1591 4.15625,6.1691 z M 13,10"
       style="font-size:7px;font-style:normal;font-weight:bold;line-height:125%;letter-spacing:0px;word-spacing:0px;fill:#000000;fill-opacity:1;stroke:none;font-family:Sans;-inkscape-font-specification:Sans Bold" />
  </g>
  <g
     inkscape:groupmode="layer"
     id="layer13"
     inkscape:label="4th"
     style="display:none"
     sodipodi:insensitive="true">
    <path
       inkscape:connector-curvature="0"
       id="4th"
       d="M 0,8 M 0,0 M 4.625,1.6378 C 4.625,2.9295 4.625,4.2211 4.625,5.5128 3.99004,5.2695 3.28548,5.5222 2.7481,5.8818 2.22485,6.2292 1.7718,6.8251 1.86221,7.485 1.91788,7.9846 2.35501,8.3803 2.84711,8.4337 3.82544,8.5738 4.85615,8.0084 5.25152,7.0997 5.43358,6.7379 5.35973,6.3284 5.375,5.9399 5.375,4.5059 5.375,3.0718 5.375,1.6378 5.125,1.6378 4.875,1.6378 4.625,1.6378 z M 13,10"
       style="font-size:medium;font-style:normal;font-variant:normal;font-weight:normal;font-stretch:normal;text-indent:0;text-align:start;text-decoration:none;line-height:normal;letter-spacing:normal;word-spacing:normal;text-transform:none;direction:ltr;block-progression:tb;writing-mode:lr-tb;text-anchor:start;baseline-shift:baseline;color:#000000;fill:#000000;fill-opacity:1;fill-rule:nonzero;stroke:none;stroke-width:0.75;marker:none;visibility:visible;display:inline;overflow:visible;enable-background:accumulate;font-family:Sans;-inkscape-font-specification:Sans" />
  </g>
  <g
     inkscape:groupmode="layer"
     id="layer12"
     inkscape:label="8th_dotted"
     style="display:none"
     sodipodi:insensitive="true">
    <path
       inkscape:connector-curvature="0"
       id="8th_dotted"
       d="M 0,8 M 0,0 M 4.625,1.6378 C 4.625,2.9295 4.625,4.2211 4.625,5.5128 3.88795,5.2413 3.07795,5.592 2.50593,6.0674 1.98437,6.4834 1.63801,7.263 2,7.8878 2.35882,8.5158 3.2059,8.5446 3.82287,8.3496 4.57658,8.1125 5.27594,7.4883 5.39736,6.6813 5.40927,6.4187 5.35589,6.159 5.375,5.8947 5.375,4.7257 5.375,3.5568 5.375,2.3878 6.04167,2.3878 6.70833,2.3878 7.375,2.3878 7.375,2.1378 7.375,1.8878 7.375,1.6378 6.45833,1.6378 5.54167,1.6378 4.625,1.6378 z M 8.625,6.6378 C 8.625,7.2211 8.625,7.8045 8.625,8.3878 9.20833,8.3878 9.79167,8.3878 10.375,8.3878 10.375,7.8045 10.375,7.2211 10.375,6.6378 9.79167,6.6378 9.20833,6.6378 8.625,6.6378 z M 13,10"
       style="font-size:medium;font-style:normal;font-variant:normal;font-weight:normal;font-stretch:normal;text-indent:0;text-align:start;text-decoration:none;line-height:normal;letter-spacing:normal;word-spacing:normal;text-transform:none;direction:ltr;block-progression:tb;writing-mode:lr-tb;text-anchor:start;baseline-shift:baseline;color:#000000;fill:#000000;fill-opacity:1;fill-rule:nonzero;stroke:none;stroke-width:0.75;marker:none;visibility:visible;display:inline;overflow:visible;enable-background:accumulate;font-family:Sans;-inkscape-font-specification:Sans" />
  </g>
  <g
     inkscape:groupmode="layer"
     id="layer11"
     inkscape:label="4th_triplet"
     style="display:none"
     sodipodi:insensitive="true">
    <path
       inkscape:connector-curvature="0"
       id="4th_triplet"
       d="M 0,8 M 0,0 M 4.625,1.6378 C 4.625,2.9295 4.625,4.2211 4.625,5.5128 3.86147,5.2312 3.01689,5.617 2.44222,6.1242 1.91147,6.5677 1.61766,7.428 2.08747,8.0173 2.56567,8.5967 3.4447,8.5215 4.07187,8.2584 4.80989,7.9384 5.44371,7.1814 5.375,6.343 5.375,4.7746 5.375,3.2062 5.375,1.6378 5.125,1.6378 4.875,1.6378 4.625,1.6378 z M 9.875,3.5128 C 9.25195,3.4928 8.58985,3.8453 8.42703,4.4812 8.27182,4.7403 8.38446,4.8526 8.65035,4.8488 8.83982,4.8826 9.02928,4.9165 9.21875,4.9503 9.22348,4.548 9.61114,4.1773 10.01895,4.3171 10.51824,4.4387 10.52481,5.2074 10.07358,5.4011 9.79951,5.4885 9.49933,5.4186 9.55664,5.7908 9.53776,5.9481 9.51888,6.1055 9.5,6.2628 9.86669,6.1315 10.35936,6.1889 10.52265,6.5954 10.6968,7.0292 10.58232,7.7099 10.04894,7.8123 9.57413,7.9426 9.21987,7.4564 9.16375,7.0785 8.85917,7.1191 8.55458,7.1597 8.25,7.2003 8.30754,7.9567 8.97928,8.5937 9.73996,8.6011 10.57525,8.704 11.48027,8.1197 11.57802,7.2534 11.70646,6.6458 11.31486,5.9897 10.70939,5.838 10.86215,5.6753 11.47374,5.2671 11.375,4.7941 11.36099,4.0382 10.60285,3.4636 9.875,3.5128 z M 13,10"
       style="font-size:7px;font-style:normal;font-weight:bold;line-height:125%;letter-spacing:0px;word-spacing:0px;fill:#000000;fill-opacity:1;stroke:none;font-family:Sans;-inkscape-font-specification:Sans Bold" />
  </g>
  <g
     inkscape:groupmode="layer"
     id="layer10"
     inkscape:label="8th"
     style="display:none"
     sodipodi:insensitive="true">
    <path
       inkscape:connector-curvature="0"
       id="8th"
       d="M 0,8 M 0,0 M 4.625,1.6378 C 4.625,2.9295 4.625,4.2211 4.625,5.5128 3.96039,5.2607 3.22544,5.5418 2.67602,5.9326 2.16538,6.2921 1.74148,6.9108 1.87537,7.5606 1.96443,8.0576 2.43124,8.4129 2.92299,8.4437 3.95299,8.5544 5.01937,7.8893 5.32854,6.8924 5.41284,6.5505 5.36029,6.1943 5.375,5.8455 5.375,4.6929 5.375,3.5404 5.375,2.3878 6.04167,2.3878 6.70833,2.3878 7.375,2.3878 7.375,2.1378 7.375,1.8878 7.375,1.6378 6.45833,1.6378 5.54167,1.6378 4.625,1.6378 z M 13,10"
       style="font-size:medium;font-style:normal;font-variant:normal;font-weight:normal;font-stretch:normal;text-indent:0;text-align:start;text-decoration:none;line-height:normal;letter-spacing:normal;word-spacing:normal;text-transform:none;direction:ltr;block-progression:tb;writing-mode:lr-tb;text-anchor:start;baseline-shift:baseline;color:#000000;fill:#000000;fill-opacity:1;fill-rule:nonzero;stroke:none;stroke-width:0.75;marker:none;visibility:visible;display:inline;overflow:visible;enable-background:accumulate;font-family:Sans;-inkscape-font-specification:Sans" />
  </g>
  <g
     inkscape:label="16th_dotted"
     id="layer9"
     inkscape:groupmode="layer"
     style="display:none"
     sodipodi:insensitive="true">
    <path
       inkscape:connector-curvature="0"
       id="16th_dotted"
       d="M 0,8 M 0,0 M 4.625,1.6378 C 4.625,2.9295 4.625,4.2211 4.625,5.5128 3.88859,5.2404 3.07777,5.5925 2.50593,6.0674 1.98437,6.4834 1.63801,7.263 2,7.8878 2.35882,8.5158 3.2059,8.5446 3.82287,8.3496 4.58873,8.12 5.25869,7.4594 5.37151,6.6525 5.37957,5.8977 5.37274,5.1427 5.375,4.3878 5.91667,4.3878 6.45833,4.3878 7,4.3878 7,4.1378 7,3.8878 7,3.6378 6.45833,3.6378 5.91667,3.6378 5.375,3.6378 5.375,3.2211 5.375,2.8045 5.375,2.3878 6.04167,2.3878 6.70833,2.3878 7.375,2.3878 7.375,2.1378 7.375,1.8878 7.375,1.6378 6.45833,1.6378 5.54167,1.6378 4.625,1.6378 z M 8.625,6.6378 C 8.625,7.2211 8.625,7.8045 8.625,8.3878 9.20833,8.3878 9.79167,8.3878 10.375,8.3878 10.375,7.8045 10.375,7.2211 10.375,6.6378 9.79167,6.6378 9.20833,6.6378 8.625,6.6378 z M 13,10"
       style="font-size:medium;font-style:normal;font-variant:normal;font-weight:normal;font-stretch:normal;text-indent:0;text-align:start;text-decoration:none;line-height:normal;letter-spacing:normal;word-spacing:normal;text-transform:none;direction:ltr;block-progression:tb;writing-mode:lr-tb;text-anchor:start;baseline-shift:baseline;color:#000000;fill:#000000;fill-opacity:1;fill-rule:nonzero;stroke:none;stroke-width:0.75;marker:none;visibility:visible;display:inline;overflow:visible;enable-background:accumulate;font-family:Sans;-inkscape-font-specification:Sans" />
  </g>
  <g
     inkscape:groupmode="layer"
     id="layer8"
     inkscape:label="8th_triplet"
     style="display:none"
     sodipodi:insensitive="true">
    <path
       style="font-size:medium;font-style:normal;font-variant:normal;font-weight:normal;font-stretch:normal;text-indent:0;text-align:start;text-decoration:none;line-height:normal;letter-spacing:normal;word-spacing:normal;text-transform:none;direction:ltr;block-progression:tb;writing-mode:lr-tb;text-anchor:start;baseline-shift:baseline;color:#000000;fill:#000000;fill-opacity:1;stroke:none;stroke-width:0.75;marker:none;visibility:visible;display:inline;overflow:visible;enable-background:accumulate;font-family:Sans;-inkscape-font-specification:Sans"
       d="M 0,8 M 0,0 M 4.625,1.6378 4.625,2.3878 4.625,5.5128 C 4.46939,5.451 4.29224,5.4126 4.125,5.4191 3.70079,5.4129 3.30192,5.5533 2.9375,5.7628 2.29745,6.1165 1.69285,6.8302 1.875,7.6066 2.01108,8.247 2.71283,8.5357 3.3125,8.4503 4.2687,8.3672 5.22864,7.6488 5.375,6.6691 5.38104,6.6254 5.37478,6.5867 5.375,6.5441 5.37522,6.5014 5.38022,6.4604 5.375,6.4191 L 5.375,2.3878 7.375,2.3878 7.375,1.6378 5.375,1.6378 4.625,1.6378 z M 9.875,3.4816 C 9.68517,3.4824 9.48935,3.5156 9.3125,3.5753 8.75797,3.7248 8.42777,4.2537 8.34375,4.7941 L 8.875,4.8878 C 9.15996,4.9935 9.27339,4.9127 9.3125,4.6066 9.50376,4.1696 10.26051,4.1793 10.375,4.6691 10.52645,5.1415 10.05588,5.5598 9.59375,5.4816 L 9.53125,6.0441 C 9.38666,6.4341 9.84825,6.0929 10.0625,6.2003 10.77656,6.3634 10.7975,7.5714 10.125,7.7941 9.67065,7.958 9.19395,7.5324 9.1875,7.0753 L 8.25,7.2003 C 8.26969,7.3747 8.33422,7.54 8.40625,7.7003 8.79846,8.6169 10.04427,8.8717 10.84375,8.3566 11.55364,7.9412 11.87347,6.8493 11.3125,6.2003 11.24216,5.9402 10.51494,5.903 10.78125,5.7628 11.29362,5.4895 11.52037,4.8154 11.25,4.2941 10.99853,3.7593 10.4445,3.4791 9.875,3.4816 z M 13,10"
       id="8th_triplet"
       inkscape:connector-curvature="0" />
  </g>
  <g
     inkscape:groupmode="layer"
     id="layer7"
     inkscape:label="16th"
     style="display:none"
     sodipodi:insensitive="true">
    <path
       style="font-size:medium;font-style:normal;font-variant:normal;font-weight:normal;font-stretch:normal;text-indent:0;text-align:start;text-decoration:none;line-height:normal;letter-spacing:normal;word-spacing:normal;text-transform:none;direction:ltr;block-progression:tb;writing-mode:lr-tb;text-anchor:start;baseline-shift:baseline;color:#000000;fill:#000000;fill-opacity:1;stroke:none;stroke-width:0.75;marker:none;visibility:visible;display:inline;overflow:visible;enable-background:accumulate;font-family:Sans;-inkscape-font-specification:Sans"
       d="M 0,8 M 0,0 M 4.625,1.6378 4.625,2.3878 C 4.62498,3.431 4.61821,4.4697 4.625,5.5128 4.32986,5.3833 3.99029,5.3408 3.6875,5.4503 3.41669,5.5077 3.17762,5.6265 2.9375,5.7628 2.27766,6.0934 1.74696,6.813 1.875,7.5753 2.05112,8.2989 2.92781,8.6379 3.59375,8.4191 4.51117,8.2421 5.33013,7.4441 5.375,6.4816 5.37422,6.4712 5.37608,6.4605 5.375,6.4503 5.40571,6.3903 5.39526,6.3145 5.375,6.2316 5.35924,5.618 5.3738,5.0015 5.375,4.3878 L 7,4.3878 7,3.6378 5.375,3.6378 C 5.37675,3.2217 5.37652,2.8038 5.375,2.3878 L 7.375,2.3878 7.375,1.6378 5.25,1.6378 4.625,1.6378 z M 13,10"
       id="16th"
       inkscape:connector-curvature="0" />
  </g>
  <g
     inkscape:groupmode="layer"
     id="layer6"
     inkscape:label="32nd_dotted"
     style="display:none"
     sodipodi:insensitive="true">
    <path
       style="font-size:medium;font-style:normal;font-variant:normal;font-weight:normal;font-stretch:normal;text-indent:0;text-align:start;text-decoration:none;line-height:normal;letter-spacing:normal;word-spacing:normal;text-transform:none;direction:ltr;block-progression:tb;writing-mode:lr-tb;text-anchor:start;baseline-shift:baseline;color:#000000;fill:#000000;fill-opacity:1;fill-rule:nonzero;stroke:none;stroke-width:0.75;marker:none;visibility:visible;display:inline;overflow:visible;enable-background:accumulate;font-family:Sans;-inkscape-font-specification:Sans"
       d="M 0,8 M 0,0 M 4.625,1.6378 4.625,2.3878 4.625,5.5128 C 4.29028,5.3706 3.89466,5.3409 3.5625,5.4816 3.33761,5.5427 3.13942,5.647 2.9375,5.7628 2.23628,6.1045 1.66095,6.937 1.90625,7.7316 2.18517,8.4196 3.06773,8.6314 3.71875,8.3878 4.54598,8.1772 5.30964,7.4467 5.375,6.5753 5.37933,6.5176 5.37682,6.4467 5.375,6.3878 L 7,6.3878 7,5.6378 5.375,5.6378 5.375,4.3878 7,4.3878 7,3.6378 5.375,3.6378 5.375,2.3878 7.375,2.3878 7.375,1.6378 5.375,1.6378 4.625,1.6378 z M 8.625,6.6378 8.625,8.3878 10.375,8.3878 10.375,6.6378 8.625,6.6378 z M 13,10"
       id="32nd_dotted"
       inkscape:connector-curvature="0" />
  </g>
  <g
     inkscape:groupmode="layer"
     id="layer5"
     inkscape:label="16th_triplet"
     style="display:none"
     sodipodi:insensitive="true">
    <path
       sodipodi:nodetypes="cccccccsccccccccccccccccccccccccscccscssssccssccccscc"
       inkscape:connector-curvature="0"
       id="16th_triplet"
       d="M 0,8 M 0,0 M 4.625,1.6378 4.625,2.0128 4.625,2.3878 4.625,5.5128 C 4.49107,5.4617 4.36287,5.4283 4.21875,5.4191 3.80533,5.3924 3.35472,5.5219 2.9375,5.7628 2.52027,6.0037 2.18361,6.3289 2,6.7003 1.81638,7.0717 1.78593,7.517 2,7.8878 2.21407,8.2586 2.58658,8.4236 3,8.4503 3.41342,8.477 3.89527,8.3787 4.3125,8.1378 4.72972,7.8969 5.03513,7.5404 5.21875,7.1691 5.31511,6.9742 5.37248,6.783 5.375,6.5753 L 5.375,6.2003 5.375,4.3878 7,4.3878 7,3.6378 5.375,3.6378 5.375,2.3878 7,2.3878 7.375,2.3878 7.375,1.6378 7,1.6378 5.375,1.6378 z M 9.875,3.5128 C 9.59929,3.5128 9.34716,3.5654 9.125,3.6691 8.90283,3.7727 8.74918,3.8942 8.625,4.0753 8.50081,4.2564 8.40527,4.491 8.34375,4.7941 L 9.21875,4.9503 C 9.24382,4.7316 9.32129,4.5642 9.4375,4.4503 9.55371,4.3364 9.67968,4.2941 9.84375,4.2941 10.01009,4.2941 10.14974,4.3501 10.25,4.4503 10.35026,4.5506 10.40625,4.6879 10.40625,4.8566 10.40625,5.0548 10.32422,5.2057 10.1875,5.3253 10.05078,5.4449 9.85351,5.4884 9.59375,5.4816 L 9.5,6.2628 C 9.6709,6.215 9.81445,6.2003 9.9375,6.2003 10.12435,6.2003 10.27636,6.2778 10.40625,6.4191 10.53613,6.5603 10.59375,6.74 10.59375,6.9816 10.59375,7.2368 10.54183,7.4562 10.40625,7.6066 10.27067,7.7569 10.10449,7.8253 9.90625,7.8253 9.72168,7.8253 9.56738,7.7631 9.4375,7.6378 9.30761,7.5125 9.21712,7.3123 9.1875,7.0753 L 8.25,7.2003 C 8.29785,7.6219 8.48275,7.9707 8.78125,8.2316 9.07976,8.4925 9.4528,8.6066 9.90625,8.6066 10.38477,8.6066 10.80371,8.4477 11.125,8.1378 11.44629,7.8279 11.59374,7.4526 11.59375,7.0128 11.59374,6.7097 11.51578,6.477 11.34375,6.2628 11.17171,6.0486 10.94335,5.8868 10.65625,5.8253 11.13704,5.5633 11.375,5.2338 11.375,4.7941 11.375,4.4842 11.2347,4.1964 11,3.9503 10.71516,3.6495 10.34668,3.5128 9.875,3.5128 z M 13,10"
       style="font-size:7px;font-style:normal;font-weight:bold;line-height:125%;letter-spacing:0px;word-spacing:0px;fill:#000000;fill-opacity:1;stroke:none;font-family:Sans;-inkscape-font-specification:Sans Bold" />
  </g>
  <g
     inkscape:groupmode="layer"
     id="layer4"
     inkscape:label="32nd"
     style="display:none"
     sodipodi:insensitive="true">
    <path
       style="font-size:medium;font-style:normal;font-variant:normal;font-weight:normal;font-stretch:normal;text-indent:0;text-align:start;text-decoration:none;line-height:normal;letter-spacing:normal;word-spacing:normal;text-transform:none;direction:ltr;block-progression:tb;writing-mode:lr-tb;text-anchor:start;baseline-shift:baseline;color:#000000;fill:#000000;fill-opacity:1;fill-rule:nonzero;stroke:none;stroke-width:0.75;marker:none;visibility:visible;display:inline;overflow:visible;enable-background:accumulate;font-family:Sans;-inkscape-font-specification:Sans"
       d="M 0,8 M 0,0 M 4.625,1.6378 C 4.625,2.9295 4.625,4.2211 4.625,5.5128 3.96039,5.2607 3.22544,5.5418 2.67602,5.9326 2.16538,6.2921 1.74148,6.9108 1.87537,7.5606 1.96443,8.0576 2.43124,8.4129 2.92299,8.4437 3.95408,8.5544 5.02448,7.8875 5.32897,6.8869 5.41582,6.7454 5.31764,6.4743 5.4101,6.3878 5.94006,6.3878 6.47003,6.3878 7,6.3878 7,6.1378 7,5.8878 7,5.6378 6.45833,5.6378 5.91667,5.6378 5.375,5.6378 5.375,5.2211 5.375,4.8045 5.375,4.3878 5.91667,4.3878 6.45833,4.3878 7,4.3878 7,4.1378 7,3.8878 7,3.6378 6.45833,3.6378 5.91667,3.6378 5.375,3.6378 5.375,3.2211 5.375,2.8045 5.375,2.3878 6.04167,2.3878 6.70833,2.3878 7.375,2.3878 7.375,2.1378 7.375,1.8878 7.375,1.6378 6.45833,1.6378 5.54167,1.6378 4.625,1.6378 z M 13,10"
       id="32nd"
       inkscape:connector-curvature="0" />
  </g>
  <g
     inkscape:groupmode="layer"
     id="layer3"
     inkscape:label="32nd_triplet"
     style="display:none"
     sodipodi:insensitive="true">
    <path
       style="font-size:medium;font-style:normal;font-variant:normal;font-weight:normal;font-stretch:normal;text-indent:0;text-align:start;text-decoration:none;line-height:normal;letter-spacing:normal;word-spacing:normal;text-transform:none;direction:ltr;block-progression:tb;writing-mode:lr-tb;text-anchor:start;baseline-shift:baseline;color:#000000;fill:#000000;fill-opacity:1;fill-rule:nonzero;stroke:none;stroke-width:0.75;marker:none;visibility:visible;display:inline;overflow:visible;enable-background:accumulate;font-family:Sans;-inkscape-font-specification:Sans"
       d="M 0,8 M 0,0 M 4.625,1.6378 C 4.625,2.9295 4.625,4.2211 4.625,5.5128 3.83343,5.2244 2.95843,5.639 2.38114,6.1826 1.8868,6.6288 1.63787,7.4555 2.08747,8.0173 2.56567,8.5967 3.4447,8.5215 4.07187,8.2584 4.79422,7.9426 5.42428,7.2114 5.375,6.3878 5.91667,6.3878 6.45833,6.3878 7,6.3878 7,6.1378 7,5.8878 7,5.6378 6.45833,5.6378 5.91667,5.6378 5.375,5.6378 5.375,5.2211 5.375,4.8045 5.375,4.3878 5.91667,4.3878 6.45833,4.3878 7,4.3878 7,4.1378 7,3.8878 7,3.6378 6.45833,3.6378 5.91667,3.6378 5.375,3.6378 5.375,3.2211 5.375,2.8045 5.375,2.3878 6.04167,2.3878 6.70833,2.3878 7.375,2.3878 7.375,2.1378 7.375,1.8878 7.375,1.6378 6.45833,1.6378 5.54167,1.6378 4.625,1.6378 z M 8.26318,7.2016 C 8.57308,7.164 8.88297,7.1265 9.19287,7.0889 9.19932,7.546 9.65926,7.9525 10.11361,7.7886 10.78611,7.5659 10.78685,6.3765 10.07279,6.2134 9.85865,6.1059 9.3815,6.4481 9.52601,6.0582 9.55168,5.8686 9.57736,5.6789 9.60303,5.4892 10.06516,5.5675 10.53313,5.1404 10.38168,4.668 10.26719,4.1782 9.51188,4.1738 9.32062,4.6107 9.28144,4.9167 9.17433,5.009 8.88941,4.9033 8.70459,4.8719 8.51978,4.8405 8.33496,4.8091 8.41898,4.2687 8.75017,3.737 9.3047,3.5875 10.01208,3.3485 10.92002,3.5795 11.25531,4.2925 11.52568,4.8138 11.28676,5.4886 10.77439,5.7618 10.50808,5.9021 11.23096,5.952 11.3013,6.2122 11.86227,6.8612 11.56453,7.9399 10.85464,8.3552 10.05516,8.8704 8.79016,8.6254 8.39795,7.7088 8.32592,7.5485 8.28287,7.376 8.26318,7.2016 z M 13,10"
       id="32nd_triplet"
       inkscape:connector-curvature="0" />
  </g>
  <g
     inkscape:groupmode="layer"
     id="layer2"
     inkscape:label="64th"
     style="display:none"
     sodipodi:insensitive="true">
    <path
       style="font-size:medium;font-style:normal;font-variant:normal;font-weight:normal;font-stretch:normal;text-indent:0;text-align:start;text-decoration:none;line-height:normal;letter-spacing:normal;word-spacing:normal;text-transform:none;direction:ltr;block-progression:tb;writing-mode:lr-tb;text-anchor:start;baseline-shift:baseline;color:#000000;fill:#000000;fill-opacity:1;fill-rule:nonzero;stroke:none;stroke-width:0.75;marker:none;visibility:visible;display:inline;overflow:visible;enable-background:accumulate;font-family:Sans;-inkscape-font-specification:Sans"
       d="M 0,8 M 0,0 M 4.625,1.6378 C 4.625,2.3045 4.625,2.9711 4.625,3.6378 4.08333,3.6378 3.54167,3.6378 3,3.6378 3,3.8878 3,4.1378 3,4.3878 3.54167,4.3878 4.08333,4.3878 4.625,4.3878 4.625,4.7628 4.625,5.1378 4.625,5.5128 3.96039,5.2607 3.22544,5.5418 2.67602,5.9326 2.16538,6.2921 1.74148,6.9108 1.87537,7.5606 1.96443,8.0576 2.43124,8.4129 2.92299,8.4437 3.95408,8.5544 5.02448,7.8875 5.32897,6.8869 5.41142,6.5386 5.36112,6.1768 5.375,5.8219 5.375,5.3439 5.375,4.8658 5.375,4.3878 5.91667,4.3878 6.45833,4.3878 7,4.3878 7,4.1378 7,3.8878 7,3.6378 6.45833,3.6378 5.91667,3.6378 5.375,3.6378 5.375,3.2211 5.375,2.8045 5.375,2.3878 6.04167,2.3878 6.70833,2.3878 7.375,2.3878 7.375,2.1378 7.375,1.8878 7.375,1.6378 6.45833,1.6378 5.54167,1.6378 4.625,1.6378 z M 13,10"
       id="64th"
       inkscape:connector-curvature="0" />
  </g>
  <g
     inkscape:groupmode="layer"
     id="layer1"
     inkscape:label="64th_triplet"
     style="display:inline"
     sodipodi:insensitive="true">
    <path
       d="M 0,8 M 0,0 M 4.625,1.6378 C 4.625,2.3045 4.625,2.9711 4.625,3.6378 4.08333,3.6378 3.54167,3.6378 3,3.6378 3,3.8878 3,4.1378 3,4.3878 3.54167,4.3878 4.08333,4.3878 4.625,4.3878 4.625,4.7628 4.625,5.1378 4.625,5.5128 3.83343,5.2244 2.95843,5.639 2.38114,6.1826 1.8868,6.6288 1.63787,7.4555 2.08747,8.0173 2.56567,8.5967 3.4447,8.5215 4.07187,8.2584 4.81914,7.9357 5.4498,7.1678 5.375,6.3211 5.375,5.6766 5.375,5.0322 5.375,4.3878 5.91667,4.3878 6.45833,4.3878 7,4.3878 7,4.1378 7,3.8878 7,3.6378 6.45833,3.6378 5.91667,3.6378 5.375,3.6378 5.375,3.2211 5.375,2.8045 5.375,2.3878 6.04167,2.3878 6.70833,2.3878 7.375,2.3878 7.375,2.1378 7.375,1.8878 7.375,1.6378 6.45833,1.6378 5.54167,1.6378 4.625,1.6378 z M 8.26318,7.2016 C 8.57308,7.164 8.88297,7.1265 9.19287,7.0889 9.19932,7.546 9.65926,7.9525 10.11361,7.7886 10.78611,7.5659 10.78685,6.3765 10.07279,6.2134 9.85865,6.1059 9.3815,6.4481 9.52601,6.0582 9.55168,5.8686 9.57736,5.6789 9.60303,5.4892 10.06516,5.5675 10.53313,5.1404 10.38168,4.668 10.26719,4.1782 9.51188,4.1738 9.32062,4.6107 9.28144,4.9167 9.17433,5.009 8.88941,4.9033 8.70459,4.8719 8.51978,4.8405 8.33496,4.8091 8.41898,4.2687 8.75017,3.737 9.3047,3.5875 10.01208,3.3485 10.92002,3.5795 11.25531,4.2925 11.52568,4.8138 11.28676,5.4886 10.77439,5.7618 10.50808,5.9021 11.23096,5.952 11.3013,6.2122 11.86227,6.8612 11.56453,7.9399 10.85464,8.3552 10.05516,8.8704 8.79016,8.6254 8.39795,7.7088 8.32592,7.5485 8.28287,7.376 8.26318,7.2016 z M 13,10"
       id="64th_triplet"
       inkscape:connector-curvature="0" />
  </g>
  <g
     inkscape:groupmode="layer"
     id="layer23"
     inkscape:label="Extra"
     style="display:none">
    <text
       sodipodi:linespacing="125%"
       id="text4311"
       y="8.000227"
       x="-55.573589"
       style="font-size:14px;font-style:normal;font-variant:normal;font-weight:normal;font-stretch:normal;line-height:125%;letter-spacing:0px;word-spacing:0px;fill:#000000;fill-opacity:1;stroke:none;font-family:Monospace;-inkscape-font-specification:Monospace"
       xml:space="preserve"><tspan
         style="font-size:10px;font-style:normal;font-variant:normal;font-weight:bold;font-stretch:normal;font-family:Monospace;-inkscape-font-specification:Monospace Bold"
         y="8.000227"
         x="-55.573589"
         id="tspan4313"
         sodipodi:role="line">0 - 127gi</tspan></text>
  </g>
</svg>
