<?xml version="1.0" encoding="UTF-8" standalone="no"?>
<!-- Created with Inkscape (http://www.inkscape.org/) -->

<svg
   xmlns:dc="http://purl.org/dc/elements/1.1/"
   xmlns:cc="http://creativecommons.org/ns#"
   xmlns:rdf="http://www.w3.org/1999/02/22-rdf-syntax-ns#"
   xmlns:svg="http://www.w3.org/2000/svg"
   xmlns="http://www.w3.org/2000/svg"
   xmlns:xlink="http://www.w3.org/1999/xlink"
   xmlns:sodipodi="http://sodipodi.sourceforge.net/DTD/sodipodi-0.dtd"
   xmlns:inkscape="http://www.inkscape.org/namespaces/inkscape"
   inkscape:export-ydpi="240.00000"
   inkscape:export-xdpi="240.00000"
   inkscape:export-filename="/home/jimmac/gfx/novell/pdes/trunk/docs/BIGmime-text.png"
   sodipodi:docname="Text-x-generic[1].svg"
   inkscape:version="0.48.4 r9939"
   sodipodi:version="0.32"
   id="svg249"
   height="48.000000px"
   width="48.000000px"
   inkscape:output_extension="org.inkscape.output.svg.inkscape"
   version="1.1">
  <defs
     id="defs3">
    <linearGradient
       inkscape:collect="always"
       id="linearGradient4542">
      <stop
         style="stop-color:#000000;stop-opacity:1;"
         offset="0"
         id="stop4544" />
      <stop
         style="stop-color:#000000;stop-opacity:0;"
         offset="1"
         id="stop4546" />
    </linearGradient>
    <linearGradient
       id="linearGradient15662">
      <stop
         id="stop15664"
         offset="0.0000000"
         style="stop-color:#ffffff;stop-opacity:1.0000000;" />
      <stop
         id="stop15666"
         offset="1.0000000"
         style="stop-color:#f8f8f8;stop-opacity:1.0000000;" />
    </linearGradient>
    <radialGradient
       id="aigrd3"
       cx="20.8921"
       cy="64.5679"
       r="5.257"
       fx="20.8921"
       fy="64.5679"
       gradientUnits="userSpaceOnUse">
      <stop
         offset="0"
         style="stop-color:#F0F0F0"
         id="stop15573" />
      <stop
         offset="1.0000000"
         style="stop-color:#9a9a9a;stop-opacity:1.0000000;"
         id="stop15575" />
    </radialGradient>
    <radialGradient
       id="aigrd2"
       cx="20.8921"
       cy="114.5684"
       r="5.256"
       fx="20.8921"
       fy="114.5684"
       gradientUnits="userSpaceOnUse">
      <stop
         offset="0"
         style="stop-color:#F0F0F0"
         id="stop15566" />
      <stop
         offset="1.0000000"
         style="stop-color:#9a9a9a;stop-opacity:1.0000000;"
         id="stop15568" />
    </radialGradient>
    <linearGradient
       id="linearGradient269">
      <stop
         id="stop270"
         offset="0.0000000"
         style="stop-color:#a3a3a3;stop-opacity:1.0000000;" />
      <stop
         id="stop271"
         offset="1.0000000"
         style="stop-color:#4c4c4c;stop-opacity:1.0000000;" />
    </linearGradient>
    <linearGradient
       id="linearGradient259">
      <stop
         id="stop260"
         offset="0.0000000"
         style="stop-color:#fafafa;stop-opacity:1.0000000;" />
      <stop
         id="stop261"
         offset="1.0000000"
         style="stop-color:#bbbbbb;stop-opacity:1.0000000;" />
    </linearGradient>
    <radialGradient
       inkscape:collect="always"
       xlink:href="#linearGradient269"
       id="radialGradient15656"
       gradientUnits="userSpaceOnUse"
       gradientTransform="matrix(0.968273,0.000000,0.000000,1.032767,3.353553,0.646447)"
       cx="8.8244190"
       cy="3.7561285"
       fx="8.8244190"
       fy="3.7561285"
       r="37.751713" />
    <radialGradient
       inkscape:collect="always"
       xlink:href="#linearGradient259"
       id="radialGradient15658"
       gradientUnits="userSpaceOnUse"
       gradientTransform="scale(0.960493,1.041132)"
       cx="33.966679"
       cy="35.736916"
       fx="33.966679"
       fy="35.736916"
       r="86.708450" />
    <radialGradient
       inkscape:collect="always"
       xlink:href="#linearGradient15662"
       id="radialGradient15668"
       gradientUnits="userSpaceOnUse"
       gradientTransform="matrix(0.968273,0.000000,0.000000,1.032767,3.353553,0.646447)"
       cx="8.1435566"
       cy="7.2678967"
       fx="8.1435566"
       fy="7.2678967"
       r="38.158695" />
    <radialGradient
       r="5.256"
       fy="114.5684"
       fx="20.8921"
       cy="114.5684"
       cx="20.8921"
       gradientTransform="matrix(0.229703,0.000000,0.000000,0.229703,4.613529,3.979808)"
       gradientUnits="userSpaceOnUse"
       id="radialGradient2283"
       xlink:href="#aigrd2"
       inkscape:collect="always" />
    <radialGradient
       r="5.257"
       fy="64.5679"
       fx="20.8921"
       cy="64.5679"
       cx="20.8921"
       gradientTransform="matrix(0.229703,0.000000,0.000000,0.229703,4.613529,3.979808)"
       gradientUnits="userSpaceOnUse"
       id="radialGradient2285"
       xlink:href="#aigrd3"
       inkscape:collect="always" />
    <radialGradient
       inkscape:collect="always"
       xlink:href="#linearGradient4542"
       id="radialGradient4548"
       cx="24.306795"
       cy="42.07798"
       fx="24.306795"
       fy="42.07798"
       r="15.821514"
       gradientTransform="matrix(1.000000,0.000000,0.000000,0.284916,0.000000,30.08928)"
       gradientUnits="userSpaceOnUse" />
    <radialGradient
       inkscape:collect="always"
       xlink:href="#linearGradient2072"
       id="radialGradient2078"
       cx="23.25"
       cy="35.375"
       fx="23.25"
       fy="35.375"
       r="18.5"
       gradientTransform="matrix(1,0,0,0.398649,0,21.2728)"
       gradientUnits="userSpaceOnUse" />
    <linearGradient
       inkscape:collect="always"
       id="linearGradient2072">
      <stop
         style="stop-color:#000000;stop-opacity:1;"
         offset="0"
         id="stop2074" />
      <stop
         style="stop-color:#000000;stop-opacity:0;"
         offset="1"
         id="stop2076" />
    </linearGradient>
    <radialGradient
       inkscape:collect="always"
       xlink:href="#linearGradient2315"
       id="radialGradient1358"
       gradientUnits="userSpaceOnUse"
       gradientTransform="matrix(1,0,0,0.509804,0,16.05392)"
       cx="4.3920336"
       cy="32.307854"
       fx="4.3920336"
       fy="32.307854"
       r="6.375" />
    <linearGradient
       inkscape:collect="always"
       id="linearGradient2315">
      <stop
         style="stop-color:#ffffff;stop-opacity:1;"
         offset="0"
         id="stop2317" />
      <stop
         style="stop-color:#ffffff;stop-opacity:0;"
         offset="1"
         id="stop2319" />
    </linearGradient>
    <radialGradient
       inkscape:collect="always"
       xlink:href="#linearGradient2315"
       id="radialGradient1360"
       gradientUnits="userSpaceOnUse"
       gradientTransform="matrix(1,0,0,0.509804,0,16.05392)"
       cx="4.3920336"
       cy="32.307854"
       fx="4.3920336"
       fy="32.307854"
       r="6.375" />
    <radialGradient
       r="6.375"
       fy="32.307854"
       fx="4.3920336"
       cy="32.307854"
       cx="4.3920336"
       gradientTransform="matrix(1,0,0,0.509804,0,16.05392)"
       gradientUnits="userSpaceOnUse"
       id="radialGradient3105"
       xlink:href="#linearGradient2315"
       inkscape:collect="always" />
  </defs>
  <sodipodi:namedview
     inkscape:window-y="177"
     inkscape:window-x="19"
     inkscape:window-height="573"
     inkscape:window-width="1055"
     inkscape:document-units="px"
     inkscape:grid-bbox="true"
     showgrid="false"
     inkscape:current-layer="layer5"
     inkscape:cy="24.811251"
     inkscape:cx="-2.1687868"
     inkscape:zoom="5.6568542"
     inkscape:pageshadow="2"
     inkscape:pageopacity="0.0"
     borderopacity="0.25490196"
     bordercolor="#666666"
     pagecolor="#ffffff"
     id="base"
     inkscape:showpageshadow="false"
     inkscape:window-maximized="0" />
  <metadata
     id="metadata4">
    <rdf:RDF>
      <cc:Work
         rdf:about="">
        <dc:format>image/svg+xml</dc:format>
        <dc:type
           rdf:resource="http://purl.org/dc/dcmitype/StillImage" />
        <dc:title></dc:title>
        <dc:subject>
          <rdf:Bag>
            <rdf:li>text</rdf:li>
            <rdf:li>plaintext</rdf:li>
            <rdf:li>regular</rdf:li>
            <rdf:li>document</rdf:li>
          </rdf:Bag>
        </dc:subject>
        <cc:license
           rdf:resource="http://creativecommons.org/licenses/by-sa/2.0/" />
        <dc:creator>
          <cc:Agent>
            <dc:title>Jakub Steiner</dc:title>
          </cc:Agent>
        </dc:creator>
        <dc:source>http://jimmac.musichall.cz</dc:source>
      </cc:Work>
      <cc:License
         rdf:about="http://creativecommons.org/licenses/by/2.0/">
        <cc:permits
           rdf:resource="http://web.resource.org/cc/Reproduction" />
        <cc:permits
           rdf:resource="http://web.resource.org/cc/Distribution" />
        <cc:requires
           rdf:resource="http://web.resource.org/cc/Notice" />
        <cc:requires
           rdf:resource="http://web.resource.org/cc/Attribution" />
        <cc:permits
           rdf:resource="http://web.resource.org/cc/DerivativeWorks" />
        <cc:requires
           rdf:resource="http://web.resource.org/cc/ShareAlike" />
      </cc:License>
    </rdf:RDF>
  </metadata>
  <g
     inkscape:groupmode="layer"
     id="layer6"
     inkscape:label="Shadow">
    <path
       sodipodi:type="arc"
       style="opacity:0.7836257;color:#000000;fill:url(#radialGradient4548);fill-opacity:1;fill-rule:evenodd;stroke:none;stroke-width:2;stroke-linecap:round;stroke-linejoin:round;marker:none;marker-start:none;marker-mid:none;marker-end:none;stroke-miterlimit:4;stroke-dasharray:none;stroke-dashoffset:0;stroke-opacity:1;visibility:visible;display:inline;overflow:visible"
       id="path3667"
       sodipodi:cx="24.306795"
       sodipodi:cy="42.07798"
       sodipodi:rx="15.821514"
       sodipodi:ry="4.5078058"
       d="M 40.128309 42.07798 A 15.821514 4.5078058 0 1 1  8.485281,42.07798 A 15.821514 4.5078058 0 1 1  40.128309 42.07798 z"
       transform="translate(0.000000,0.707108)" />
  </g>
  <g
     style="display:inline"
     inkscape:groupmode="layer"
     inkscape:label="Base"
     id="layer1">
    <rect
       style="color:#000000;fill:url(#radialGradient15658);fill-opacity:1.0000000;fill-rule:nonzero;stroke:url(#radialGradient15656);stroke-width:1.0000000;stroke-linecap:round;stroke-linejoin:round;stroke-miterlimit:4.0000000;stroke-dashoffset:0.0000000;stroke-opacity:1.0000000;marker:none;marker-start:none;marker-mid:none;marker-end:none;visibility:visible;display:block;overflow:visible"
       id="rect15391"
       width="34.875000"
       height="40.920494"
       x="6.6035528"
       y="3.6464462"
       ry="1.1490486" />
    <rect
       style="color:#000000;fill:none;fill-opacity:1.0000000;fill-rule:nonzero;stroke:url(#radialGradient15668);stroke-width:1.0000000;stroke-linecap:round;stroke-linejoin:round;stroke-miterlimit:4.0000000;stroke-dashoffset:0.0000000;stroke-opacity:1.0000000;marker:none;marker-start:none;marker-mid:none;marker-end:none;visibility:visible;display:block;overflow:visible"
       id="rect15660"
       width="32.775887"
       height="38.946384"
       x="7.6660538"
       y="4.5839462"
       ry="0.14904857"
       rx="0.14904857" />
    <g
       transform="translate(0.646447,-3.798933e-2)"
       id="g2270">
      <g
         id="g1440"
         style="fill:#ffffff;fill-opacity:1.0000000;fill-rule:nonzero;stroke:#000000;stroke-miterlimit:4.0000000"
         transform="matrix(0.229703,0.000000,0.000000,0.229703,4.967081,4.244972)">
        <radialGradient
           id="radialGradient1442"
           cx="20.892099"
           cy="114.56840"
           r="5.2560000"
           fx="20.892099"
           fy="114.56840"
           gradientUnits="userSpaceOnUse">
          <stop
             offset="0"
             style="stop-color:#F0F0F0"
             id="stop1444" />
          <stop
             offset="1"
             style="stop-color:#474747"
             id="stop1446" />
        </radialGradient>
        <path
           style="stroke:none"
           d="M 23.428000,113.07000 C 23.428000,115.04300 21.828000,116.64200 19.855000,116.64200 C 17.881000,116.64200 16.282000,115.04200 16.282000,113.07000 C 16.282000,111.09600 17.882000,109.49700 19.855000,109.49700 C 21.828000,109.49700 23.428000,111.09700 23.428000,113.07000 z "
           id="path1448" />
        <radialGradient
           id="radialGradient1450"
           cx="20.892099"
           cy="64.567902"
           r="5.2570000"
           fx="20.892099"
           fy="64.567902"
           gradientUnits="userSpaceOnUse">
          <stop
             offset="0"
             style="stop-color:#F0F0F0"
             id="stop1452" />
          <stop
             offset="1"
             style="stop-color:#474747"
             id="stop1454" />
        </radialGradient>
        <path
           style="stroke:none"
           d="M 23.428000,63.070000 C 23.428000,65.043000 21.828000,66.643000 19.855000,66.643000 C 17.881000,66.643000 16.282000,65.043000 16.282000,63.070000 C 16.282000,61.096000 17.882000,59.497000 19.855000,59.497000 C 21.828000,59.497000 23.428000,61.097000 23.428000,63.070000 z "
           id="path1456" />
      </g>
      <path
         style="fill:url(#radialGradient2283);fill-rule:nonzero;stroke:none;stroke-miterlimit:4.0000000"
         d="M 9.9950109,29.952326 C 9.9950109,30.405530 9.6274861,30.772825 9.1742821,30.772825 C 8.7208483,30.772825 8.3535532,30.405301 8.3535532,29.952326 C 8.3535532,29.498892 8.7210780,29.131597 9.1742821,29.131597 C 9.6274861,29.131597 9.9950109,29.499122 9.9950109,29.952326 z "
         id="path15570" />
      <path
         style="fill:url(#radialGradient2285);fill-rule:nonzero;stroke:none;stroke-miterlimit:4.0000000"
         d="M 9.9950109,18.467176 C 9.9950109,18.920380 9.6274861,19.287905 9.1742821,19.287905 C 8.7208483,19.287905 8.3535532,18.920380 8.3535532,18.467176 C 8.3535532,18.013742 8.7210780,17.646447 9.1742821,17.646447 C 9.6274861,17.646447 9.9950109,18.013972 9.9950109,18.467176 z "
         id="path15577" />
    </g>
    <path
       style="fill:none;fill-opacity:0.75000000;fill-rule:evenodd;stroke:#000000;stroke-width:0.98855311;stroke-linecap:butt;stroke-linejoin:miter;stroke-miterlimit:4.0000000;stroke-opacity:0.017543854"
       d="M 11.505723,5.4942766 L 11.505723,43.400869"
       id="path15672"
       sodipodi:nodetypes="cc" />
    <path
       style="fill:none;fill-opacity:0.75000000;fill-rule:evenodd;stroke:#ffffff;stroke-width:1.0000000;stroke-linecap:butt;stroke-linejoin:miter;stroke-miterlimit:4.0000000;stroke-opacity:0.20467831"
       d="M 12.500000,5.0205154 L 12.500000,43.038228"
       id="path15674"
       sodipodi:nodetypes="cc" />
  </g>
  <g
     inkscape:groupmode="layer"
     id="layer5"
     inkscape:label="Text"
     style="display:inline">
    <g
       transform="matrix(0.80147562,0,0,0.80147562,10.066812,15.167678)"
       id="g3067">
      <path
         transform="translate(0,2.834646)"
         d="M 41.75,35.375 C 41.75,39.4481 33.467268,42.75 23.25,42.75 13.032732,42.75 4.75,39.4481 4.75,35.375 4.75,31.3019 13.032732,28 23.25,28 33.467268,28 41.75,31.3019 41.75,35.375 z"
         sodipodi:ry="7.375"
         sodipodi:rx="18.5"
         sodipodi:cy="35.375"
         sodipodi:cx="23.25"
         id="path1344"
         style="opacity:0.3;color:#000000;fill:url(#radialGradient2078);fill-opacity:1;fill-rule:evenodd;stroke:none;stroke-width:2;marker:none;visibility:visible;display:inline;overflow:visible"
         sodipodi:type="arc" />
      <path
         inkscape:connector-curvature="0"
         style="color:#000000;fill:#9db029;fill-opacity:1;fill-rule:nonzero;stroke:#596616;stroke-width:1;stroke-linecap:round;stroke-linejoin:round;stroke-miterlimit:4;stroke-opacity:1;stroke-dashoffset:0;marker:none;visibility:visible;display:block"
         d="M 41.625,7.7951523 C 41.625,7.7951523 18.5625,10.629798 18.5625,10.629798 L 18.5625,32.411048 C 16.916545,31.853397 14.630715,31.707619 12.125,32.223548 7.768686,33.120517 4.6471398,35.523035 5.125,37.567298 5.6028601,39.611561 9.518685,40.558018 13.875,39.661048 17.991641,38.813428 21.559123,36.623246 21.477633,34.661048 L 21.633883,15.629798 C 21.633883,15.629798 38.56434,12.734492 38.56434,12.734492 L 38.56434,30.019106 C 28.31434,28.519106 25.272139,32.912342 25.75,34.956606 26.22786,37.000869 30.143686,37.947325 34.5,37.050356 38.365376,36.254471 41.13241,34.287145 41.40625,32.425356 L 41.625,7.7951523 z"
         id="path7042"
         sodipodi:nodetypes="cccccccccccccc" />
      <path
         inkscape:connector-curvature="0"
         sodipodi:nodetypes="ccccccccccc"
         id="path2311"
         d="M 40.729036,8.8956383 C 40.729036,8.8956383 19.547267,11.730284 19.547267,11.730284 L 19.547267,33.568621 C 11.982012,31.663311 5.8141632,35.40303 6.2685944,37.347065 6.9730255,40.6661 20.646969,38.449299 20.569474,34.208305 L 20.718063,14.735139 C 20.718063,14.735139 39.568437,11.842807 39.568437,11.842807 L 39.568437,31.279973 C 32.002153,29.353326 26.302939,32.656357 26.757371,34.600393 27.336802,37.794428 39.135597,36.713755 40.521011,31.943247 L 40.729036,8.8956383 z"
         style="opacity:0.51176471;color:#000000;fill:none;stroke:#ffffff;stroke-width:1;stroke-linecap:butt;stroke-linejoin:miter;stroke-miterlimit:4;stroke-opacity:1;stroke-dasharray:none;stroke-dashoffset:0;marker:none;visibility:visible;display:block" />
      <path
         transform="matrix(0.734516,-0.111645,0.111645,0.734516,3.903362,12.22551)"
         d="M 12.25,32.75 C 12.25,34.544925 9.3958153,36 5.875,36 2.3541847,36 -0.5,34.544925 -0.5,32.75 -0.5,30.955075 2.3541847,29.5 5.875,29.5 9.3958153,29.5 12.25,30.955075 12.25,32.75 z"
         sodipodi:ry="3.25"
         sodipodi:rx="6.375"
         sodipodi:cy="32.75"
         sodipodi:cx="5.875"
         id="path2313"
         style="opacity:0.51176471;color:#000000;fill:url(#radialGradient1358);fill-opacity:1;fill-rule:nonzero;stroke:none;stroke-width:1;marker:none;visibility:visible;display:block;overflow:visible"
         sodipodi:type="arc" />
      <path
         sodipodi:type="arc"
         style="opacity:0.51176471;color:#000000;fill:url(#radialGradient3105);fill-opacity:1;fill-rule:nonzero;stroke:none;stroke-width:1;marker:none;visibility:visible;display:block;overflow:visible"
         id="path2323"
         sodipodi:cx="5.875"
         sodipodi:cy="32.75"
         sodipodi:rx="6.375"
         sodipodi:ry="3.25"
         d="M 12.25,32.75 C 12.25,34.544925 9.3958153,36 5.875,36 2.3541847,36 -0.5,34.544925 -0.5,32.75 -0.5,30.955075 2.3541847,29.5 5.875,29.5 9.3958153,29.5 12.25,30.955075 12.25,32.75 z"
         transform="matrix(0.734516,-0.111645,0.111645,0.734516,23.74587,9.390864)" />
    </g>
    <path
       sodipodi:nodetypes="ccccsscccccssssscccssssccccsscccccsssscccsssssscccccssssssssscccccss"
       inkscape:connector-curvature="0"
       id="path3224"
       d="M 12.098679,13.05013 12.098679,8.2781957 17.002251,8.2911332 21.905826,8.3040696 22.084119,8.4149331 C 22.182182,8.4759081 22.312297,8.6060259 22.373272,8.7040864 L 22.484133,8.8823783 22.484133,13.340175 22.484133,17.797971 21.255229,17.797971 20.026322,17.797971 20.013966,14.188107 C 20.005169,11.618787 19.986105,10.559561 19.947825,10.513438 19.907905,10.46534 19.737135,10.448821 19.285488,10.44937 18.950783,10.449775 18.649967,10.467235 18.617002,10.48817 18.570267,10.517849 18.554349,11.326843 18.544714,14.162101 L 18.532356,17.797971 17.291406,17.81083 16.05045,17.823693 16.05045,14.186052 C 16.05045,10.638943 16.04813,10.547166 15.957236,10.498519 15.83602,10.433648 14.770915,10.433648 14.649702,10.498519 14.558808,10.547166 14.556486,10.638934 14.556486,14.185237 L 14.556486,17.822066 13.327581,17.822066 12.098679,17.822066 z M 23.687372,17.762657 C 23.674569,17.729067 23.669683,15.587143 23.676518,13.002827 L 23.688944,8.3040696 24.91785,8.3040696 26.146755,8.3040696 26.146755,13.051019 26.146755,17.797971 24.928703,17.810849 C 23.980311,17.820877 23.705499,17.810205 23.687372,17.762657 z M 27.349599,17.761825 C 27.336927,17.728693 27.332187,16.411236 27.339064,14.834136 L 27.351563,11.96669 28.580471,11.96669 29.809376,11.96669 29.822022,13.771432 C 29.83162,15.141646 29.849025,15.58529 29.894312,15.614051 29.997727,15.679735 33.323485,15.66216 33.390069,15.595577 33.43356,15.552089 33.4479,14.919119 33.4479,13.043076 33.4479,10.625993 33.445001,10.546855 33.354688,10.498519 33.293322,10.465679 32.247249,10.448632 30.293545,10.448632 L 27.325625,10.448632 27.338593,9.37635 27.351563,8.3040696 31.355071,8.3040696 35.35858,8.3040696 35.552325,8.4322997 C 35.658887,8.5028255 35.787418,8.6437869 35.837942,8.7455497 35.925725,8.9223448 35.930429,9.1084012 35.943721,12.930538 35.953416,15.718075 35.94159,16.995208 35.904707,17.143962 35.832387,17.435643 35.68746,17.623603 35.452653,17.730241 35.265233,17.815355 35.053229,17.820004 31.313876,17.821008 28.204513,17.821845 27.367772,17.809352 27.349599,17.761825 z M 37.133049,17.762657 C 37.120246,17.729067 37.115363,15.587143 37.122195,13.002827 L 37.13462,8.3040696 38.363525,8.3040696 39.592433,8.3040696 39.592433,13.051019 39.592433,17.797971 38.374379,17.810849 C 37.425985,17.820877 37.151175,17.810205 37.133049,17.762657 z"
       style="fill:#000000" />
  </g>
</svg>
