<?xml version="1.0" encoding="UTF-8" standalone="no"?>
<!-- Created with Inkscape (http://www.inkscape.org/) -->

<svg
   xmlns:dc="http://purl.org/dc/elements/1.1/"
   xmlns:cc="http://creativecommons.org/ns#"
   xmlns:rdf="http://www.w3.org/1999/02/22-rdf-syntax-ns#"
   xmlns:svg="http://www.w3.org/2000/svg"
   xmlns="http://www.w3.org/2000/svg"
   xmlns:xlink="http://www.w3.org/1999/xlink"
   xmlns:sodipodi="http://sodipodi.sourceforge.net/DTD/sodipodi-0.dtd"
   xmlns:inkscape="http://www.inkscape.org/namespaces/inkscape"
   width="72mm"
   height="20mm"
   viewBox="0 0 255.11811 70.866147"
   id="svg2"
   version="1.1"
   inkscape:version="0.91pre4 r13712"
   sodipodi:docname="MixerTapeLabel.svg"
   inkscape:export-filename="F:\Users\Spindler\Documents\Visual Studio 2013\Projects\gb505MIDI\Resources\LookAndFeel\MixerTapeLabel.png"
   inkscape:export-xdpi="25.400002"
   inkscape:export-ydpi="25.400002">
  <defs
     id="defs4">
    <linearGradient
       id="linearGradient4278-2"
       inkscape:collect="always">
      <stop
         id="stop4290"
         offset="0"
         style="stop-color:#f7f4e8;stop-opacity:1" />
      <stop
         style="stop-color:#ede7ca;stop-opacity:1"
         offset="0.5"
         id="stop4294" />
      <stop
         id="stop4292"
         offset="1"
         style="stop-color:#f3eeda;stop-opacity:1" />
    </linearGradient>
    <linearGradient
       inkscape:collect="always"
       xlink:href="#linearGradient4278-2"
       id="linearGradient4286"
       x1="431.1608"
       y1="213.8998"
       x2="465.20328"
       y2="356.6734"
       gradientUnits="userSpaceOnUse"
       gradientTransform="matrix(0.52704248,0,0,0.46044813,-77.971516,-110.83728)" />
  </defs>
  <sodipodi:namedview
     id="base"
     pagecolor="#ffffff"
     bordercolor="#666666"
     borderopacity="1.0"
     inkscape:pageopacity="0.0"
     inkscape:pageshadow="2"
     inkscape:zoom="2.24"
     inkscape:cx="112.50281"
     inkscape:cy="-37.786051"
     inkscape:document-units="px"
     inkscape:current-layer="layer1"
     showgrid="false"
     fit-margin-top="0"
     fit-margin-left="0"
     fit-margin-right="0"
     fit-margin-bottom="0"
     inkscape:window-width="1920"
     inkscape:window-height="1137"
     inkscape:window-x="-8"
     inkscape:window-y="-8"
     inkscape:window-maximized="1" />
  <g
     inkscape:label="Ebene 1"
     inkscape:groupmode="layer"
     id="layer1"
     transform="translate(0,15.696623)">
    <path
       style="fill:url(#linearGradient4286);fill-opacity:1;fill-rule:evenodd;stroke:#000000;stroke-width:2.00000018;stroke-linecap:butt;stroke-linejoin:miter;stroke-miterlimit:4;stroke-dasharray:none;stroke-opacity:1"
       d="m 7.8894265,-13.599453 0.1508928,1.010709 -1.1065943,1.0986 0.3018087,1.8456495 1.6095712,0.7909816 1.4083811,-0.087917 0.553297,1.889582 -1.3077853,1.3622609 c 0,0 -0.70419,0.5712411 -0.70419,1.0107348 0,0.4394045 0.050282,1.8455599 0.050282,1.8455599 L 7.7887929,-1.8664646 3.7139244,0.2428962 3.6636421,2.0005905 4.166641,3.3628514 3.6636421,5.4281901 l 0.70419,0.1318111 -1.3580754,1.0105945 -1.1568845,1.9774221 0.7041827,1.0108496 -0.502992,0.8348886 3.5215944,1.933528 -0.704198,0.659055 0,0.659184 c 0,0 -0.6035945,0.219855 -0.7544883,0.439455 -0.1508849,0.219728 -0.3520831,1.406156 -0.3520831,1.406156 l -0.9054037,0.571266 0.7545029,0.659183 -1.8107769,0.26375 c 0,0 1.6095707,0.527372 1.6095707,0.703078 0,0.175833 -1.3077772,1.098511 -1.3077772,1.098511 l 0.6035948,0.571267 c 0,0 0.1006026,0.703077 -0.1006026,0.834888 -0.2011908,0.131684 -1.0562891,0.7471 -1.0562891,0.7471 L 1.2499131,22.34646 c 0,0 0.7544954,0.834889 0.6035948,1.054745 -0.150893,0.2196 -0.4024038,1.054361 -0.4024038,1.054361 L 1.350516,25.334604 0.74692125,26.433243 c 0,0 1.30777755,2.636478 1.05628915,2.636478 -0.2515036,0 -0.5029921,0.922805 -0.603595,1.23045 -0.1005954,0.307644 -0.30179359,2.109488 -0.30179359,2.372983 0,0.263622 1.05628899,1.669905 0.85509069,1.845611 -0.2012057,0.175833 0.7041903,2.812438 0.7041903,2.988271 0,0.175834 0.3520988,1.494072 0.3520988,1.494072 L 1.5517068,38.781381 c 0,0 0.5532971,1.757822 0.6035949,2.021316 0.050283,0.263878 -0.1006027,1.494072 -0.1006027,1.494072 L 3.6139871,43.43943 3.3121864,44.054719 3.6139871,45.15323 3.3624837,45.90033 2.054699,45.63658 c 0,0 -0.1508858,1.450177 0.2011908,1.626011 0.3521063,0.175705 1.6095937,0.790866 1.6095937,0.790866 l 1.3580828,1.581989 c 0,0 1.1568766,1.010722 1.1568766,1.450178 0,0.439455 0.1509008,1.450177 0.1509008,1.450177 l -1.2071898,0.351539 1.408388,0.790994 2.6658602,0.746973 35.3101299,-0.263495 52.814268,0.307644 13.68143,-0.307644 0.2012,0.351411 2.96765,-0.439455 1.45869,-0.04338 0.10062,0.395561 10.26104,-0.04339 c 0,0 3.11856,-0.439455 3.42036,-0.351538 0.3018,0.08804 3.06826,0.175833 3.06826,0.175833 l 5.33172,-0.26375 72.28011,0.04338 37.82669,0 0.6539,0.439583 1.60957,-0.615289 0.7545,-0.307516 0.55329,0.571266 0.80479,0.04338 c 0,0 0,-1.45005 -0.15091,-1.625883 -0.15089,-0.175833 -3.62187,-1.318366 -3.42065,-1.406283 0.20119,-0.08804 0.55327,0.131684 0.55327,0.131684 l 0.90541,0.7471 -0.0503,-2.812439 c 0,0 -2.21317,0.703078 -1.96168,0.659183 0.2515,-0.04338 -5.78538,-1.010722 -5.78538,-1.010722 l 2.06226,-1.318494 1.509,-0.08677 c 0,0 0.10062,0.790739 0.30179,0.790739 0.2012,0 -0.0504,-2.768416 -0.2515,-2.724394 -0.20119,0.04338 -2.51497,0 -2.51497,0 l 0.80479,-0.703078 c 0,0 -0.40238,-1.23045 -0.3521,-1.406283 0.0503,-0.175706 2.56558,-1.625883 2.56558,-1.625883 0,0 1.96199,-2.109106 1.96199,-1.889506 0,0.219601 -0.65421,0.48335 -0.65421,0.48335 l 1.05659,-2.285066 3.67249,-3.295788 c 0,0 0.65388,0.527372 0.7042,0.263622 0.0503,-0.263622 -0.55329,-3.076061 -0.55329,-3.559283 0,-0.483478 -1.91168,-4.1747 -1.91168,-4.1747 0,0 1.4587,0.439328 1.65989,0.439328 0.2012,0 0.60358,-1.054616 0.60358,-1.054616 l 0.70419,-0.26375 0.75451,-1.537967 c 0,0 -3.21981,-0.263622 -2.918,-0.395433 0.30179,-0.131811 1.55926,-1.362389 1.30777,-1.362389 -0.2515,0 -1.25748,0.175833 -1.25748,0.175833 0,0 2.96829,0.659184 2.96829,0.395561 0,-0.263749 0.0503,-0.790994 0.0503,-0.790994 l -3.16951,-0.2196 -0.0503,-1.318367 0.90539,-0.131811 1.50899,-2.680627 1.10658,-0.615034 -0.30179,-1.406283 -0.5533,-0.219727 c 0,0 -1.5093,-1.757695 -1.86139,-1.845611 -0.35209,-0.08677 2.4653,-1.186683 2.4653,-1.186683 0,0 -2.26377,-0.351411 -2.16319,-0.70295 0.10062,-0.351412 0.20121,-0.878784 0.20121,-0.878784 l 1.05628,-0.615161 0.45269,-1.669905 -1.86172,-1.5380942 1.25748,0.1758333 0.0504,-1.2743444 -0.40239,-0.7030777 -1.006,-0.5713942 0,-2.5046665 c 0,0 1.006,0.043384 1.006,-0.1759608 0,-0.2196002 -0.10062,-1.2742168 -0.10062,-1.2742168 0,0 0.8551,0.1316836 0.8048,-0.08932 -0.0503,-0.2196001 -2.11291,-0.83488884 -2.11291,-0.83488884 l 0.4527,-0.6151611 -0.20121,-1.80184406 -1.00598,-0.1757056 c 0,0 -0.2012,-0.9228052 0.15091,-0.9228052 l 1.30777,0 -0.50299,-0.7031415 -0.0503,-1.3183154 0.9054,-0.5273593 0.10062,-0.8788089 1.81107,-3.1639646 -1.00598,-1.0546682 -0.20118,-1.669854 -1.006,-1.054655 -2.01196,-0.351551 -2.81677,0.21974 -1.71017,-0.263673 -0.30179,-0.747049 -25.85386,0.219715 -3.67185,-0.351552 -4.12453,0.439443 -33.39877,0 -1.05627,-0.395497 -3.42036,0 c 0,0 0.10062,0.439443 -0.20118,0.439443 -0.30182,0 -3.77246,-0.131888 -3.77246,-0.131888 l -0.60359,-0.351539 -8.1988,0.04377 -33.85145,0.439443 -55.379535,-0.0439 -49.243019,-0.04377 c 0,0 -1.005992,-0.351551 -1.207189,-0.307593 -0.201207,0.04377 -7.494597,0.08792 -7.494597,0.08792 l -0.402397,0.395484 -0.452696,0.571279 -0.603593,-0.219715 c 0,0 -1.056274,-0.131874 -1.408381,-0.131874 -0.352084,0 -3.7724325,0.175769 -3.7724325,0.175769 z"
       id="path4186"
       inkscape:connector-curvature="0"
       sodipodi:nodetypes="ccccccccscccccccccccccccccccscccccccccscscsccccccccccccscccccccccccccccccccccccccccccccscccccsccccscsccccscsccccccccccccccccccccsccccccscccccccccccccccccccscccccccccccscc" />
  </g>
  <metadata
     id="metadata4330">
    <rdf:RDF>
      <cc:Work
         rdf:about="">
        <dc:title></dc:title>
      </cc:Work>
    </rdf:RDF>
  </metadata>
</svg>
